<?xml version="1.0" encoding="UTF-8"?><svg id="Capa_1" xmlns="http://www.w3.org/2000/svg" width="131.58mm" height="24.92mm" viewBox="0 0 372.99 70.63"><defs><style>.cls-1{fill:#cffce7;}</style></defs><path class="cls-1" d="M220.45,18.28l12.05,29.38,5.04-13.43-6.3-15.95h6.65l4.39,11.3,4.15-11.3h6.65l-6.17,15.95,5.04,13.44,11.93-29.38h7.78l-15.82,37.55c-.48.29-6.53.21-6.91-.13l-6.78-16.58-6.77,16.58c-.52.53-5.59.2-6.66.12l-16.07-37.54h7.78Z"/><path class="cls-1" d="M318.51,18.28l11.93,29.38.55-.58,4.91-12.81-6.47-15.99h6.65l4.15,11.3,4.27-11.3h6.78c-1.67,5.45-4.2,10.6-6.18,15.95l5.3,13.44,12.05-29.38h7.66l-15.94,37.42c-.56.5-5.99.33-7.04,0l-6.78-16.58-7.02,16.84c-1.81-.26-4.33.3-6.04-.02-.28-.05-.48-.13-.6-.4l-15.85-37.26h7.66Z"/><path class="cls-1" d="M302.67,53.04c-10.83,7.67-26.73,2.7-30.36-10.4-4.09-14.76,8.23-27.85,23.24-24.74,16.38,3.39,20.6,25.61,7.13,35.15ZM298.66,27.71c-6.03-5.8-14.5-3.32-17.65,4.04-3.83,8.97,3.07,20.49,13.33,17.35,8.66-2.65,10.56-15.39,4.32-21.39Z"/><path class="cls-1" d="M182.05,3.51c-4.33,1.65-.72,7.01-.34,10.23.31,2.39.36,5.29-1.21,7.25-2.42,2.86-6.55.59-9.45-.17-4.23-.56-9.36,4.12-6.52,8.41,2.49,3.76,6.29,2.57,10.08,2.23,2.81-.28,7.13.26,7.23,3.8-.46,5.34-6.64,2.56-10.06,2.91-2.85.31-5.54,2.24-6.01,5.09-.69,6.66,8.06,8.23,12.98,6.64,4.09-.37,3.45,4.93,2.49,7.57-1.33,2.59-2.12,6.22-.95,8.9.89,2.03,4.18,1.72,5.65,1.68.16,0,.51-.02.51-.02V3.31s-.17,0-.41,0c-.67,0-2.5-.18-3.71.11-.07.02-.21.06-.28.09Z"/><polygon class="cls-1" points="204.27 31.29 204.27 23.33 190.56 23.33 190.56 3.31 186.38 3.31 186.38 68.03 190.56 68.03 190.56 48.01 204.27 48.01 204.27 40.06 190.56 40.06 190.56 31.29 204.27 31.29"/><path class="cls-1" d="M114.8,58.97h.92c-5.46,0-9.31-3.32-8.5-9.01.59-4.1,3.48-7.92,2.67-12.37-.35-2.64-2.62-5.56-5.18-5.56-.18,0-.36.02-.55.05-4.41.2-8.19,6.28-6.64,10.74,1.2,4.27,4.5,8.33,1.89,12.98-.7,1.24-1.6,2.5-2.93,3.06-1.1.43-2.42.64-3.6.82-.89.12-.91.22-1.93.22-1.7,0-3.39-.29-4.39-1.34-1.05-1.17-1.76-2.63-2.12-4.19-.49-2.06-.37-4.3.31-6.29.26-.76.61-1.49,1.04-2.16,2.64-4.41,1.52-9.83-.42-14.07-.64-1.47-1.28-3.15-1.68-4.84-.4-1.73-.54-3.48-.14-5.03.47-1.83,1.69-3.37,4.11-4.28,1.33-.62,2.19-1.27,3.79-1.27.6,0,1.17.09,1.66.31l.14.06c1.59.63,2.82,2.15,3.3,3.8.12.31.45.55.71.55.03,0,.06-.01.08-.01,1.98-.89,3.02-1.57,5.58-1.77,1.63-.18,3.21-.28,4.71-.28,8.7,0,13.8,3.37,12.43,14.54-.45,1.98-1.29,3.7-1.38,5.8-1.22,5.6,6.36,18.94-3.88,19.54Z"/><path class="cls-1" d="M155.06,54.66c-.99,2.83-4.51,4.06-7.23,4.06h-.03c-3.26-.29-5.49-3.31-6.7-6.1-1.53-3.08-2.1-6.49-3.54-9.52-.33-.58-.83-.85-1.31-.85-.55,0-1.08.36-1.34,1.01-.67,1.56.35,3.71.78,5.72.52,2.66.61,6.02-.58,8.33-.93,1.7-2.57,2.02-4.39,2.02-.75,0-1.53-.05-2.3-.09-.84-.06-1.73-.19-2.48-.52-2.89-1.34-2.19-5.15-2.67-7.84-.89-4.13-1.73-8.6-.61-12.85,1.01-6.03,1.2-12.21-.15-18.25-1.06-4.99-2.08-10.92,1.92-14.95,1.47-1.1,2.87-1.57,4.14-1.57,4.56,0,7.48,6.06,5.9,11.05-.24,1.5-3.42,15.03-.27,15.03.26,0,.55-.09.88-.27l.12-.1c2.73-3.11,4.37-8.69,7.32-11.14,1.51-1.22,4.74-2.28,7.62-2.28,2.4,0,4.55.74,5.23,2.71.93,2.3-.34,5.37-2.08,7.19-1.33,1.29-3.18,1.86-4.66,2.96-1.67,1.13-2.56,2.85-3.85,4.07-.73.71-1.65,1.33-2.18,2.2-1.43,3.19,4.55,4.1,5.69,6.49.85,1.3,1.2,2.86,2.33,3.97,2.91,2.39,6.31,5.24,4.44,9.52Z"/><path class="cls-1" d="M81.39,54.27c-.72,2.27-2.05,4.36-3.98,5.09-.28.1-.58.15-.89.15-1.5,0-3.23-1.02-4.34-1.19-.1-.01-.19-.02-.28-.02-.67,0-1.32.26-1.97.44-3.55,1.11-6.92,1.97-10.63,2.07-.06.01-.13.01-.19.01-3.05,0-6.43-1.1-9.18-2.78-2.19-1.55-3.92-4.02-4.74-6.47-1.88-5.6.12-9.99.02-15.37-.28-5.23-3.74-8.84-1.82-15.35.05-.18.11-.36.17-.55.49-1.59,1.65-2.91,3.2-3.54,1.19-.49,2.54-.78,3.84-.78,1.43,0,2.8.35,3.83,1.15l.11.11c1.46,2.06,2.53,5.38,2.56,7.9-.09,5.49-3.98,10.3-1.09,16.34,1.05,2.52,3.38,3.82,5.76,3.82,1.99,0,5.01-.92,6.34-2.82,4.7-6.67-3.4-13.48.64-20.19,1.49-3.02,2.5-4.07,5.58-4.07.22,0,.45,0,.69.01,1.42.11,3.26.3,4.3,1.29.55.81.93,1.65,1.17,2.51.45,1.61.43,3.3.17,5.03-.67,4.48-2.93,9.27-2.7,13.93.11,1.67.59,3.27,1.7,4.55.68.82,1.55,1.58,1.99,2.56h0c.06.15.12.29.16.44.37,1.49.22,3.68-.42,5.73Z"/><path class="cls-1" d="M40.91,41.88c-.35,3.34-1.64,6.43-3.15,9.54-1.04,1.54-2.35,2.86-3.45,4.37-2.99,2.97-8.36,4.29-13.58,4.29-3.11,0-6.18-.47-8.65-1.34-3.28-1.27-6.44-3.83-8.35-6.87-1.22-3.42-2.31-7.24-1.34-10.82.73-2.34,2.44-3.52,4.62-4.06.98-.36,1.96-.54,2.92-.54,1.81,0,3.52.65,4.88,1.98,1.57,1.98.32,4.74,1.58,6.9.77,1.34,2.24,2.01,3.73,2.01,1.24,0,2.5-.47,3.37-1.39,1.64-1.6,2.35-4,3.1-6.12,1.6-3.16.89-7.07,1.01-10.56.12-3.66,1.35-8.31,1.02-12.11-.59-3.7-2.76-9.81,2.18-11.32,1.78-.53,3.84-1.32,5.53-1.32.5,0,.96.07,1.37.23l.15.05c1.09.46,2.37,1.14,2.89,2.34.87,2.11,1.02,5.11,1.04,7.29.03,3.1-1.4,5.95-1.55,9.05-.52,6.45,1.43,12.11.68,18.4Z"/></svg>